<?xml version="1.0" standalone="no"?>
<!DOCTYPE svg PUBLIC "-//W3C//DTD SVG 20010904//EN"
 "http://www.w3.org/TR/2001/REC-SVG-20010904/DTD/svg10.dtd">
<svg version="1.0" xmlns="http://www.w3.org/2000/svg"
 width="64.000000pt" height="64.000000pt" viewBox="0 0 64.000000 64.000000"
 preserveAspectRatio="xMidYMid meet">

<g transform="translate(0.000000,64.000000) scale(0.100000,-0.100000)"
fill="#000000" stroke="none">
<path d="M216 604 c-71 -22 -159 -112 -180 -184 -34 -115 -12 -206 73 -291 85
-85 176 -107 291 -73 75 22 162 109 184 184 34 115 12 206 -73 291 -85 84
-180 108 -295 73z m199 -26 c18 -10 24 -18 16 -22 -6 -4 -18 0 -27 8 -17 17
-50 21 -58 7 -3 -5 1 -14 9 -21 23 -19 18 -35 -17 -48 -30 -12 -32 -14 -15
-26 21 -16 22 -26 3 -26 -7 0 -16 -10 -20 -22 l-6 -23 -19 24 c-22 29 -51 23
-52 -11 0 -17 -2 -19 -7 -8 -4 9 -15 26 -24 39 -15 21 -21 23 -50 15 -24 -7
-34 -16 -36 -34 -2 -14 -12 -33 -23 -43 -10 -10 -19 -24 -19 -31 0 -8 -7 -27
-16 -42 -15 -28 -16 -28 -11 34 9 111 87 210 191 242 42 13 146 6 181 -12z
m-3 -73 c-2 -14 -8 -25 -13 -25 -5 0 -9 -11 -9 -25 0 -41 36 -32 60 15 26 50
25 60 -2 60 -21 1 -22 1 -4 11 26 16 61 -13 98 -78 74 -130 29 -294 -99 -365
-95 -53 -197 -48 -289 15 -56 38 -110 125 -96 154 5 10 14 28 20 40 7 13 12
31 12 41 0 9 9 25 20 35 11 9 20 25 20 36 0 44 53 32 71 -16 12 -31 35 -29 47
5 7 18 11 22 14 12 3 -8 9 -28 14 -45 6 -20 17 -31 32 -33 20 -3 23 0 21 25
-4 50 0 63 21 63 22 0 25 12 10 40 -8 15 -7 18 2 15 15 -6 41 42 27 51 -5 3
-9 10 -9 16 0 6 8 4 19 -6 12 -11 16 -25 13 -41z m16 -35 c-7 -10 -14 -17 -17
-15 -4 4 18 35 25 35 2 0 -1 -9 -8 -20z m-124 -96 c3 -8 2 -12 -4 -9 -6 3 -10
10 -10 16 0 14 7 11 14 -7z"/>
<path d="M365 406 c-20 -15 -15 -46 8 -46 21 0 38 25 31 44 -7 20 -15 20 -39
2z"/>
<path d="M410 356 c0 -8 5 -18 10 -21 8 -5 7 -11 -1 -21 -9 -11 -14 -12 -20
-3 -8 14 -51 5 -72 -15 -7 -8 -22 -15 -33 -18 -24 -4 -31 -64 -11 -92 13 -18
18 -19 55 -7 35 12 43 11 63 -3 30 -21 53 -20 74 1 23 22 13 85 -18 116 l-22
22 23 3 c48 7 18 51 -35 52 -7 0 -13 -6 -13 -14z m-25 -66 c4 -6 14 -9 23 -6
26 8 52 -18 59 -58 7 -45 -14 -56 -62 -30 -28 15 -38 16 -60 6 -21 -10 -31
-10 -41 -1 -19 16 -18 59 1 59 8 0 24 9 35 20 22 22 36 25 45 10z"/>
<path d="M100 280 c0 -5 7 -10 15 -10 8 0 15 5 15 10 0 6 -7 10 -15 10 -8 0
-15 -4 -15 -10z"/>
<path d="M133 243 c-18 -7 -16 -23 2 -23 8 0 15 7 15 15 0 8 -1 15 -2 14 -2 0
-9 -3 -15 -6z"/>
<path d="M161 196 c-7 -8 -8 -17 -3 -20 6 -3 15 1 21 8 7 8 8 17 3 20 -6 3
-15 -1 -21 -8z"/>
<path d="M200 155 c0 -8 4 -15 9 -15 5 0 11 7 15 15 3 9 0 15 -9 15 -8 0 -15
-7 -15 -15z"/>
<path d="M250 135 c0 -8 5 -15 10 -15 6 0 10 7 10 15 0 8 -4 15 -10 15 -5 0
-10 -7 -10 -15z"/>
</g>
</svg>
